<?xml version="1.0" encoding="UTF-8"?><svg id="Layer_5" xmlns="http://www.w3.org/2000/svg" viewBox="0 0 321 138"><defs><style>.cls-1{fill:#fff;}</style></defs><g><path class="cls-1" d="M148.72,55c.07-.18,.14-.36,.21-.54,.07-.18,.16-.34,.25-.5l9.45-16.71c.09-.15,.18-.24,.27-.27,.09-.03,.21-.05,.37-.05h1.21v24.06h-1.53v-20.5c0-.29,.02-.61,.05-.94l-9.47,16.81c-.16,.29-.39,.44-.68,.44h-.27c-.28,0-.51-.15-.68-.44l-9.72-16.83c.03,.33,.05,.65,.05,.95v20.5h-1.51v-24.06h1.19c.16,0,.29,.02,.38,.05,.1,.03,.19,.12,.28,.27l9.71,16.73c.17,.32,.32,.66,.44,1.02Z"/><path class="cls-1" d="M173.19,43.79c.95,0,1.83,.16,2.64,.49s1.51,.81,2.11,1.44c.59,.63,1.06,1.4,1.39,2.32,.33,.92,.5,1.97,.5,3.16,0,.25-.04,.42-.11,.51-.07,.09-.19,.14-.35,.14h-12.21v.32c0,1.27,.15,2.39,.44,3.35,.29,.96,.71,1.77,1.26,2.42,.54,.65,1.2,1.14,1.97,1.47s1.63,.49,2.58,.49c.85,0,1.59-.09,2.21-.28s1.15-.4,1.57-.63c.43-.23,.76-.44,1.01-.63s.43-.28,.54-.28c.15,0,.26,.06,.34,.17l.44,.54c-.27,.34-.63,.66-1.08,.95-.45,.29-.95,.55-1.5,.76-.55,.21-1.14,.38-1.77,.5-.63,.12-1.26,.19-1.9,.19-1.16,0-2.21-.2-3.16-.6-.95-.4-1.77-.99-2.45-1.76-.68-.77-1.21-1.71-1.58-2.83-.37-1.12-.56-2.39-.56-3.83,0-1.21,.17-2.33,.52-3.36,.35-1.03,.84-1.91,1.5-2.65s1.45-1.32,2.4-1.74c.95-.42,2.02-.63,3.22-.63Zm.03,1.21c-.87,0-1.65,.14-2.34,.41-.69,.27-1.29,.66-1.79,1.17-.5,.51-.91,1.12-1.22,1.84s-.52,1.51-.62,2.4h11.13c0-.91-.12-1.72-.37-2.44s-.6-1.33-1.05-1.83c-.45-.5-1-.88-1.63-1.15-.63-.27-1.33-.4-2.1-.4Z"/><path class="cls-1" d="M196.18,60.98c-.28,0-.44-.15-.49-.44l-.17-2.67c-.75,1.02-1.62,1.83-2.63,2.43-1,.6-2.13,.9-3.38,.9-2.08,0-3.7-.72-4.86-2.16-1.16-1.44-1.75-3.6-1.75-6.48,0-1.24,.16-2.39,.49-3.46s.8-2,1.43-2.79c.63-.79,1.4-1.41,2.32-1.86s1.97-.68,3.16-.68,2.14,.21,2.98,.64c.84,.42,1.57,1.05,2.18,1.86v-10.03h1.62v24.73h-.89Zm-6.21-1.09c1.12,0,2.14-.29,3.05-.87s1.72-1.38,2.43-2.41v-8.92c-.66-.96-1.38-1.64-2.17-2.04-.79-.4-1.68-.6-2.68-.6s-1.87,.18-2.62,.54-1.38,.88-1.88,1.54c-.51,.66-.89,1.46-1.14,2.38-.25,.92-.38,1.94-.38,3.05,0,2.52,.47,4.37,1.4,5.55,.93,1.18,2.26,1.78,4,1.78Z"/><path class="cls-1" d="M205.55,38.23c0,.2-.04,.39-.13,.57s-.2,.33-.33,.47c-.14,.14-.29,.24-.48,.32-.18,.08-.37,.12-.58,.12s-.4-.04-.58-.12c-.18-.08-.34-.19-.48-.32-.14-.14-.24-.29-.32-.47-.08-.18-.12-.37-.12-.57s.04-.4,.12-.59c.08-.19,.19-.35,.32-.48,.14-.14,.29-.24,.48-.32,.18-.08,.37-.12,.58-.12s.4,.04,.58,.12c.18,.08,.34,.19,.48,.32,.14,.14,.25,.3,.33,.48s.13,.38,.13,.59Zm-.71,5.83v16.92h-1.62v-16.92h1.62Z"/><path class="cls-1" d="M221.62,60.98c-.34,0-.55-.16-.63-.48l-.24-2.16c-.46,.45-.93,.86-1.39,1.22-.46,.36-.94,.67-1.44,.92s-1.04,.44-1.62,.57c-.58,.13-1.21,.2-1.9,.2-.58,0-1.14-.08-1.68-.25s-1.03-.43-1.45-.78c-.42-.35-.76-.8-1.01-1.35-.26-.55-.38-1.21-.38-1.98,0-.71,.2-1.38,.61-1.99,.41-.61,1.04-1.14,1.91-1.6,.87-.45,1.98-.82,3.35-1.09,1.37-.27,3.01-.43,4.92-.48v-1.77c0-1.56-.34-2.77-1.01-3.61-.67-.84-1.67-1.27-3-1.27-.82,0-1.51,.11-2.08,.34-.57,.23-1.06,.48-1.45,.75-.4,.27-.72,.52-.97,.75-.25,.23-.46,.34-.63,.34-.23,0-.4-.1-.51-.31l-.29-.49c.88-.88,1.81-1.55,2.79-2.01s2.08-.68,3.32-.68c.91,0,1.7,.14,2.38,.43s1.24,.7,1.69,1.24c.45,.54,.78,1.19,1.01,1.95,.23,.77,.34,1.62,.34,2.56v11.02h-.65Zm-6.8-.9c.66,0,1.26-.07,1.81-.21s1.06-.34,1.53-.6c.47-.25,.91-.56,1.32-.91,.41-.35,.81-.73,1.21-1.14v-4.4c-1.61,.05-3,.17-4.16,.37-1.16,.2-2.12,.47-2.87,.81-.75,.34-1.31,.75-1.67,1.22-.36,.47-.54,1.01-.54,1.61,0,.57,.09,1.06,.28,1.47,.19,.41,.43,.75,.74,1.02s.66,.46,1.07,.59c.41,.12,.83,.19,1.27,.19Z"/><path class="cls-1" d="M242.38,36.65c.76,0,1.48,.13,2.16,.39,.68,.26,1.27,.61,1.78,1.05,.5,.44,.91,.95,1.21,1.54,.3,.58,.46,1.19,.48,1.83-.16,.03-.3,.07-.43,.1-.26,.06-.46,.08-.61,.08-.09,0-.18-.03-.25-.1-.08-.07-.14-.16-.17-.29-.08-.29-.22-.63-.41-1.02-.19-.38-.45-.75-.78-1.09-.33-.34-.74-.63-1.23-.87-.49-.24-1.07-.36-1.74-.36s-1.3,.1-1.85,.31c-.56,.21-1.03,.5-1.43,.88-.4,.38-.71,.83-.93,1.35-.22,.52-.33,1.09-.33,1.72,0,.93,.24,1.82,.71,2.67,.48,.85,1.21,1.76,2.21,2.74l7.58,7.48c.51-.82,.92-1.67,1.22-2.55,.3-.88,.5-1.74,.59-2.57,.02-.15,.07-.26,.14-.35,.07-.09,.17-.13,.31-.13h.93c-.02,1.07-.22,2.16-.6,3.29-.38,1.13-.92,2.21-1.62,3.24l5.07,4.96h-1.51c-.2,0-.37-.02-.5-.07-.13-.05-.28-.15-.45-.31l-3.49-3.42c-.51,.59-1.07,1.13-1.68,1.63-.61,.5-1.28,.93-1.99,1.28s-1.48,.64-2.29,.84c-.81,.2-1.66,.31-2.56,.31s-1.69-.14-2.52-.42c-.83-.28-1.57-.7-2.22-1.25-.65-.55-1.18-1.22-1.58-2.02-.4-.8-.6-1.71-.6-2.73,0-.82,.15-1.6,.44-2.34,.29-.74,.7-1.42,1.21-2.04,.51-.62,1.12-1.17,1.82-1.66,.7-.49,1.46-.88,2.28-1.19-.8-.91-1.41-1.79-1.81-2.64-.4-.86-.6-1.77-.6-2.75,0-.79,.14-1.53,.43-2.2,.29-.67,.7-1.26,1.23-1.76,.53-.5,1.17-.89,1.91-1.17s1.57-.43,2.49-.43Zm-7.75,18.07c0,.87,.17,1.63,.5,2.28s.77,1.19,1.3,1.62c.53,.44,1.12,.76,1.78,.98,.65,.22,1.29,.32,1.93,.32,.79,0,1.54-.09,2.25-.27,.71-.18,1.37-.43,1.99-.76,.62-.32,1.18-.71,1.7-1.15s.99-.93,1.42-1.46l-7.8-7.67c-.07-.06-.13-.12-.19-.19-.75,.32-1.43,.7-2.03,1.14-.61,.44-1.12,.93-1.54,1.47-.42,.54-.74,1.12-.97,1.74-.23,.62-.34,1.27-.34,1.94Z"/><path class="cls-1" d="M151.14,77.72v1.45h-12.67v10.11h10.97v1.45h-10.97v11.05h-1.75v-24.06h14.42Z"/><path class="cls-1" d="M160.52,84.59c1.21,0,2.3,.21,3.26,.62s1.77,1,2.42,1.76c.66,.76,1.16,1.67,1.5,2.75s.52,2.27,.52,3.6-.17,2.52-.52,3.59-.85,1.98-1.5,2.74-1.46,1.34-2.42,1.75c-.96,.41-2.04,.61-3.26,.61s-2.3-.2-3.25-.61c-.96-.41-1.77-.99-2.43-1.75-.66-.76-1.17-1.67-1.51-2.74s-.52-2.26-.52-3.59,.17-2.52,.52-3.6,.85-1.99,1.51-2.75c.66-.76,1.47-1.35,2.43-1.76,.96-.41,2.04-.62,3.25-.62Zm0,16.13c1.01,0,1.89-.17,2.64-.52s1.38-.84,1.89-1.49c.5-.65,.88-1.42,1.13-2.34,.25-.91,.37-1.94,.37-3.07s-.12-2.14-.37-3.06-.63-1.7-1.13-2.35c-.5-.65-1.13-1.15-1.89-1.5-.75-.35-1.63-.53-2.64-.53s-1.89,.18-2.64,.53c-.75,.35-1.38,.85-1.89,1.5-.5,.65-.88,1.44-1.14,2.35s-.38,1.94-.38,3.06,.13,2.16,.38,3.07c.25,.91,.63,1.69,1.14,2.34,.5,.65,1.13,1.14,1.89,1.49,.75,.35,1.63,.52,2.64,.52Z"/><path class="cls-1" d="M177.08,102.05c-1.14,0-2.03-.32-2.67-.95-.63-.63-.95-1.61-.95-2.94v-11.56h-2.43c-.12,0-.23-.03-.31-.1-.08-.07-.12-.16-.12-.29v-.63l2.89-.2,.4-6.05c.01-.1,.05-.19,.13-.27,.07-.08,.17-.12,.29-.12h.76v6.46h5.32v1.21h-5.32v11.48c0,.46,.06,.86,.18,1.2s.28,.61,.49,.82c.21,.22,.46,.37,.74,.48s.59,.15,.92,.15c.41,0,.76-.06,1.05-.18,.29-.12,.55-.25,.77-.39,.21-.14,.39-.27,.53-.39,.14-.12,.24-.18,.32-.18,.09,0,.18,.06,.27,.17l.44,.71c-.43,.48-.98,.86-1.64,1.15-.66,.29-1.35,.43-2.07,.43Z"/><path class="cls-1" d="M191.04,84.59c1.21,0,2.3,.21,3.26,.62,.96,.41,1.76,1,2.42,1.76,.66,.76,1.16,1.67,1.5,2.75s.52,2.27,.52,3.6-.17,2.52-.52,3.59-.85,1.98-1.5,2.74-1.46,1.34-2.42,1.75c-.96,.41-2.04,.61-3.26,.61s-2.3-.2-3.26-.61c-.96-.41-1.77-.99-2.43-1.75s-1.17-1.67-1.51-2.74-.52-2.26-.52-3.59,.17-2.52,.52-3.6,.85-1.99,1.51-2.75c.66-.76,1.47-1.35,2.43-1.76,.96-.41,2.04-.62,3.26-.62Zm0,16.13c1.01,0,1.89-.17,2.64-.52s1.38-.84,1.89-1.49,.88-1.42,1.13-2.34c.25-.91,.37-1.94,.37-3.07s-.12-2.14-.37-3.06c-.25-.92-.63-1.7-1.13-2.35s-1.13-1.15-1.89-1.5c-.75-.35-1.63-.53-2.64-.53s-1.89,.18-2.64,.53c-.75,.35-1.38,.85-1.89,1.5-.5,.65-.88,1.44-1.14,2.35-.25,.92-.38,1.94-.38,3.06s.13,2.16,.38,3.07c.26,.91,.63,1.69,1.14,2.34,.5,.65,1.13,1.14,1.89,1.49s1.63,.52,2.64,.52Z"/><path class="cls-1" d="M208.56,84.58c.74,0,1.42,.09,2.05,.27,.63,.18,1.19,.44,1.69,.77h4.33v.56c0,.28-.16,.44-.48,.46l-2.57,.19c.32,.43,.56,.92,.73,1.45,.17,.54,.26,1.11,.26,1.73,0,.82-.15,1.56-.44,2.22s-.71,1.23-1.23,1.7-1.16,.84-1.9,1.1c-.74,.26-1.55,.39-2.45,.39-.97,0-1.86-.15-2.65-.44-.48,.27-.85,.59-1.12,.97-.27,.37-.41,.74-.41,1.09,0,.49,.17,.86,.51,1.12,.34,.26,.79,.45,1.35,.57,.56,.12,1.2,.2,1.92,.23,.72,.03,1.45,.07,2.19,.11,.74,.04,1.47,.11,2.19,.21s1.36,.28,1.92,.54c.56,.25,1.01,.61,1.35,1.07,.34,.46,.51,1.07,.51,1.83,0,.7-.18,1.38-.53,2.02s-.86,1.22-1.52,1.72c-.66,.5-1.46,.9-2.41,1.2-.94,.3-2,.45-3.16,.45s-2.23-.12-3.13-.37c-.9-.24-1.65-.57-2.25-.99-.61-.41-1.06-.89-1.37-1.44s-.46-1.12-.46-1.73c0-.9,.29-1.67,.88-2.31,.59-.65,1.4-1.14,2.43-1.5-.57-.19-1.02-.47-1.35-.83-.33-.36-.5-.87-.5-1.51,0-.24,.04-.49,.14-.75,.09-.26,.23-.52,.41-.77,.18-.25,.4-.5,.65-.72s.55-.43,.89-.61c-.8-.46-1.43-1.08-1.88-1.85-.45-.77-.67-1.67-.67-2.7,0-.82,.14-1.56,.43-2.22s.7-1.23,1.22-1.71c.53-.48,1.17-.84,1.91-1.1s1.58-.39,2.48-.39Zm6.27,18.34c0-.53-.14-.96-.42-1.28-.28-.32-.65-.58-1.11-.76s-1-.31-1.61-.38c-.61-.07-1.24-.13-1.9-.16-.66-.03-1.33-.07-2-.1-.67-.03-1.29-.1-1.87-.2-.43,.17-.83,.37-1.2,.59-.37,.22-.68,.47-.94,.75-.26,.28-.46,.58-.61,.92-.15,.33-.22,.7-.22,1.1,0,.5,.13,.96,.38,1.39,.25,.43,.63,.79,1.12,1.1s1.1,.56,1.81,.74c.71,.18,1.54,.27,2.46,.27,.86,0,1.66-.1,2.41-.29,.74-.19,1.39-.46,1.94-.82,.55-.35,.98-.77,1.29-1.26s.47-1.02,.47-1.6Zm-6.27-8.62c.73,0,1.37-.1,1.94-.31,.57-.21,1.04-.5,1.43-.88,.38-.37,.68-.82,.88-1.34,.2-.52,.3-1.1,.3-1.73s-.1-1.22-.31-1.74c-.2-.53-.5-.98-.89-1.35-.39-.37-.87-.66-1.43-.87-.56-.2-1.2-.31-1.91-.31s-1.35,.1-1.92,.31-1.05,.49-1.44,.87-.69,.82-.89,1.35c-.2,.53-.31,1.11-.31,1.74s.1,1.21,.31,1.73c.2,.52,.5,.97,.89,1.34s.87,.67,1.44,.88c.57,.21,1.21,.31,1.92,.31Z"/><path class="cls-1" d="M220.14,101.78v-16.92h.85c.19,0,.33,.04,.42,.12s.13,.22,.14,.41l.14,3.57c.54-1.37,1.27-2.45,2.18-3.22,.91-.78,2.02-1.16,3.35-1.16,.51,0,.98,.05,1.41,.16,.43,.11,.84,.26,1.22,.47l-.22,1.12c-.03,.18-.15,.27-.34,.27-.07,0-.17-.02-.29-.07-.12-.04-.28-.1-.47-.15-.19-.06-.42-.11-.69-.15-.27-.04-.58-.07-.93-.07-1.28,0-2.33,.4-3.15,1.19-.82,.79-1.49,1.94-2,3.43v11h-1.62Z"/><path class="cls-1" d="M243.58,101.78c-.34,0-.55-.16-.63-.48l-.24-2.16c-.46,.45-.93,.86-1.39,1.22-.46,.36-.94,.67-1.44,.92-.5,.25-1.04,.44-1.61,.57-.58,.13-1.21,.2-1.9,.2-.58,0-1.14-.08-1.68-.25-.54-.17-1.03-.43-1.45-.78-.42-.35-.76-.8-1.01-1.35-.25-.55-.38-1.21-.38-1.98,0-.71,.2-1.38,.61-1.99,.41-.61,1.05-1.14,1.91-1.6,.87-.45,1.98-.82,3.35-1.09,1.37-.27,3.01-.43,4.92-.48v-1.77c0-1.56-.34-2.77-1.01-3.61-.67-.84-1.67-1.27-3-1.27-.82,0-1.51,.11-2.08,.34-.57,.23-1.06,.48-1.45,.75s-.72,.52-.97,.75c-.25,.23-.46,.34-.63,.34-.23,0-.4-.1-.51-.31l-.29-.49c.88-.88,1.81-1.55,2.79-2.01,.97-.45,2.08-.68,3.31-.68,.91,0,1.7,.14,2.38,.43,.68,.29,1.24,.7,1.69,1.24,.45,.54,.79,1.19,1.01,1.95,.23,.77,.34,1.62,.34,2.56v11.02h-.65Zm-6.8-.9c.66,0,1.26-.07,1.81-.21,.55-.14,1.06-.34,1.53-.6,.47-.25,.91-.56,1.32-.91,.41-.35,.81-.73,1.21-1.14v-4.4c-1.61,.05-2.99,.17-4.16,.37-1.16,.2-2.12,.47-2.87,.81-.75,.34-1.31,.75-1.67,1.22-.36,.47-.54,1.01-.54,1.61,0,.57,.09,1.06,.28,1.47,.19,.41,.43,.75,.74,1.02,.31,.27,.66,.46,1.07,.59s.83,.19,1.28,.19Z"/><path class="cls-1" d="M249.96,101.78v-15.15l-2.38-.15c-.33-.02-.49-.16-.49-.43v-.66h2.87v-1.45c0-1.04,.15-1.98,.46-2.82s.75-1.54,1.33-2.13c.58-.58,1.29-1.03,2.13-1.35s1.8-.47,2.87-.47c.37,0,.76,.03,1.17,.1,.4,.07,.74,.16,1.01,.28l-.07,.82c-.01,.11-.09,.17-.24,.17-.12,0-.31-.02-.55-.06-.24-.04-.55-.06-.93-.06-1.79,0-3.17,.46-4.15,1.38s-1.46,2.32-1.46,4.2v1.39h9.91v16.39h-1.62v-15.18h-8.26v15.18h-1.62Z"/><path class="cls-1" d="M273.83,84.59c.95,0,1.83,.16,2.64,.49s1.51,.81,2.11,1.44c.59,.63,1.06,1.4,1.39,2.32,.33,.92,.5,1.97,.5,3.16,0,.25-.04,.42-.11,.51-.07,.09-.19,.14-.35,.14h-12.21v.32c0,1.27,.15,2.39,.44,3.35,.29,.96,.71,1.77,1.26,2.42,.54,.65,1.2,1.14,1.97,1.47s1.63,.49,2.58,.49c.85,0,1.59-.09,2.21-.28s1.15-.4,1.57-.63c.43-.23,.76-.44,1.01-.63s.43-.28,.54-.28c.15,0,.26,.06,.34,.17l.44,.54c-.27,.34-.63,.66-1.08,.95-.45,.29-.95,.55-1.5,.76-.55,.21-1.14,.38-1.77,.5-.63,.12-1.26,.19-1.9,.19-1.16,0-2.21-.2-3.16-.6-.95-.4-1.77-.99-2.45-1.76-.68-.77-1.21-1.71-1.58-2.83-.37-1.12-.56-2.39-.56-3.83,0-1.21,.17-2.33,.52-3.36,.35-1.03,.84-1.91,1.5-2.65s1.45-1.32,2.4-1.74c.95-.42,2.02-.63,3.22-.63Zm.03,1.21c-.87,0-1.65,.14-2.34,.41-.69,.27-1.29,.66-1.79,1.17-.5,.51-.91,1.12-1.22,1.84s-.52,1.51-.62,2.4h11.13c0-.91-.12-1.72-.37-2.44s-.6-1.33-1.05-1.83c-.45-.5-1-.88-1.63-1.15-.63-.27-1.33-.4-2.1-.4Z"/></g><path class="cls-1" d="M78.39,91.64c-2.97,13.82-17.94,20.58-31.18,18.74-3.75-.57-8.85-1.85-10.44-5.82-4.46-11.12-6.08-60.6,.34-70.18,2.42-3.1,6.99-4.27,10.59-3.79,10.86,1.58,17.42,11.56,21.78,20.17,5.7,11.38,8.82,23.58,13.35,35.39,2.1,5.21,4.35,11.57,7.82,15.62,2.04,2.39,5.07,2.37,7.3,.4,2.85-2.77,4.31-6.77,5.76-10.7,2-5.79,3.43-11.75,4.89-17.77,3.17-12.52,9.08-35.01,19.45-42.96,.14-.1,.34-.07,.44,.07,.09,.13,.07,.31-.04,.41-8.08,9-11.74,31.51-14.09,43.67-1.79,9.99-4,25.32-11.54,32.64-3.92,3.84-11.09,4.67-15.4,.92-3.66-3.03-5.22-7.59-6.33-11.91-2.21-9.3-2.43-18.92-5.27-27.98-1.85-5.96-4.48-11.72-8.07-16.78-4.74-6.76-15.11-16.51-23.47-13.54-.47,.23-.82,.5-1.15,.84,.11-.06,.3-.39,.16-.1-.25,.63-.4,1.27-.57,2.08-.97,5.14-1.23,10.41-1.55,15.67-.56,12.25-.93,24.8,.06,37,.26,2.79,.6,6.28,1.52,8.68-.03-.04-.06-.07-.1-.1,.12,.08,.14,.15,.29,.25,1.48,1.02,3.41,1.59,5.3,2.03,6.9,1.56,14.87,1.03,21.11-2.82,3.91-2.4,6.81-6,8.76-10.24,.06-.18,.33-.07,.28,.1h0Z"/></svg>